<?xml version="1.0" standalone="no"?>
<!DOCTYPE svg PUBLIC "-//W3C//DTD SVG 20010904//EN"
 "http://www.w3.org/TR/2001/REC-SVG-20010904/DTD/svg10.dtd">
<svg version="1.0" xmlns="http://www.w3.org/2000/svg"
 width="768.000000pt" height="768.000000pt" viewBox="0 0 768.000000 768.000000"
 preserveAspectRatio="xMidYMid meet">
<metadata>
Created by potrace 1.14, written by Peter Selinger 2001-2017
</metadata>
<g transform="translate(0.000000,768.000000) scale(0.100000,-0.100000)"
fill="#000000" stroke="none">
<path d="M0 3840 l0 -3840 3840 0 3840 0 0 3840 0 3840 -3840 0 -3840 0 0
-3840z m5115 2411 c146 -20 310 -63 415 -109 116 -50 282 -135 315 -162 81
-64 199 -177 235 -225 21 -27 56 -70 78 -93 21 -24 54 -71 72 -105 18 -33 46
-79 61 -100 16 -22 29 -45 29 -50 0 -6 18 -47 39 -91 54 -112 98 -246 111
-341 13 -99 12 -395 -2 -413 -8 -9 -6 -17 4 -30 12 -15 14 -113 10 -712 -4
-824 -4 -836 -2 -875 6 -80 -10 -228 -30 -273 -12 -26 -24 -67 -27 -92 -3 -25
-9 -49 -13 -55 -4 -5 -10 -22 -14 -37 -3 -16 -10 -28 -15 -28 -9 0 1 72 19
139 25 92 30 167 36 486 6 292 13 828 13 910 -3 517 -7 831 -13 875 -21 152
-76 328 -147 465 -71 139 -111 202 -204 325 -94 124 -206 225 -340 306 -65 40
-307 136 -410 162 -200 53 -182 52 -1465 52 -1229 1 -1245 0 -1445 -41 -299
-62 -568 -208 -781 -425 -75 -77 -196 -247 -242 -341 -64 -131 -130 -335 -141
-438 -14 -120 -23 -2156 -10 -2238 13 -85 48 -235 64 -272 7 -16 18 -48 25
-70 7 -22 32 -78 55 -126 53 -109 63 -138 55 -169 -5 -21 -15 -7 -64 95 -32
66 -70 149 -83 185 -13 36 -35 92 -48 125 -13 33 -26 87 -30 120 -4 33 -16
101 -27 150 -15 73 -18 110 -13 195 4 58 8 371 9 695 3 427 7 605 16 644 10
45 10 68 -1 125 -20 101 -16 447 6 574 18 105 31 148 52 173 7 9 11 23 8 31
-4 9 0 22 7 29 7 8 14 30 15 49 2 19 7 36 13 38 5 2 10 12 10 23 0 20 22 65
56 114 11 17 30 49 42 72 42 83 74 124 180 234 130 136 247 237 281 246 14 3
44 20 66 38 75 60 124 85 277 140 161 57 187 64 363 90 61 9 117 17 125 18 8
2 535 2 1170 1 779 -1 1181 -5 1235 -13z m-935 -531 c0 -7 -90 -34 -170 -50
-96 -19 -265 -4 -345 32 -28 12 -23 13 75 18 168 8 440 8 440 0z m-720 -65
c41 -9 80 -21 86 -26 21 -17 198 -57 284 -64 71 -6 106 -2 215 20 72 15 168
38 215 52 82 25 98 26 470 34 418 8 484 4 589 -38 223 -88 356 -204 457 -399
26 -49 53 -100 60 -114 15 -30 94 -287 94 -310 1 -19 32 -107 49 -139 10 -17
12 -48 7 -110 -3 -47 -7 -318 -8 -601 l-2 -515 -37 -125 c-20 -69 -46 -156
-57 -195 -32 -110 -110 -325 -141 -385 -78 -153 -212 -300 -352 -386 -117 -72
-289 -149 -434 -195 -93 -29 -274 -35 -420 -14 -178 26 -389 25 -490 -1 -44
-12 -118 -29 -165 -38 -113 -21 -150 -33 -180 -55 -21 -17 -23 -22 -12 -46 11
-25 15 -26 60 -20 26 4 76 13 112 20 82 17 342 49 395 49 22 0 101 -6 175 -13
74 -8 207 -14 295 -14 l160 -1 125 43 c167 58 290 111 381 162 80 46 212 148
244 189 11 14 43 50 71 80 48 51 132 189 168 273 8 19 20 61 26 94 7 32 24 94
37 138 28 87 34 86 47 -10 7 -46 2 -65 -49 -200 -31 -83 -70 -185 -86 -228
-54 -143 -117 -242 -221 -344 -118 -116 -239 -193 -424 -268 -188 -76 -165
-74 -969 -80 -396 -3 -839 -7 -985 -9 -146 -2 -348 -1 -450 4 -276 12 -370 44
-605 206 -202 140 -314 284 -385 494 -24 71 -31 104 -60 285 -33 209 -38 227
-72 262 l-32 33 47 92 c41 82 48 107 63 215 18 139 15 269 -10 353 -26 85 -31
367 -10 462 18 78 78 236 125 330 16 31 29 63 29 70 0 8 19 45 43 83 23 39 48
82 56 96 22 43 159 210 231 281 38 38 93 82 122 99 131 77 175 140 102 147
-83 8 -331 -184 -464 -358 -80 -105 -141 -207 -155 -260 -15 -54 -47 -130 -56
-130 -10 0 -29 76 -29 119 0 24 21 99 51 183 28 79 60 170 71 203 24 75 33 85
33 35 0 -47 18 -70 42 -54 10 6 35 45 56 87 80 159 234 240 508 266 137 13
213 55 178 97 -11 13 -25 15 -74 10 -33 -4 -105 -11 -160 -16 -171 -17 -290
-61 -395 -148 l-55 -45 65 67 c120 124 224 195 325 219 42 11 515 23 820 21
135 -1 199 -5 255 -19z m-1530 -395 c-6 -11 -13 -20 -16 -20 -2 0 0 9 6 20 6
11 13 20 16 20 2 0 0 -9 -6 -20z m4377 -3004 c2 -19 -2 -38 -7 -41 -6 -3 -10
-15 -10 -26 0 -10 -4 -19 -9 -19 -5 0 -7 -9 -4 -20 4 -14 0 -20 -10 -20 -20 0
-67 -49 -67 -69 0 -8 -3 -11 -7 -8 -4 5 104 237 111 237 1 0 2 -16 3 -34z
m-4815 -216 c7 -16 16 -30 19 -30 4 0 30 -35 59 -77 29 -43 87 -112 129 -153
44 -43 77 -84 78 -97 2 -20 0 -21 -18 -10 -16 10 -17 13 -4 15 8 2 13 7 10 12
-3 4 -14 6 -24 3 -24 -6 -60 24 -118 100 -25 32 -53 66 -62 75 -23 23 -61 90
-61 108 0 8 -4 14 -10 14 -5 0 -7 7 -3 15 3 9 -3 25 -12 35 -10 11 -13 20 -7
20 6 0 16 -13 24 -30z m4688 -24 c0 -16 -33 -76 -42 -76 -6 0 -8 -3 -5 -7 4
-3 -11 -23 -32 -44 -21 -21 -36 -40 -34 -43 8 -7 -101 -138 -137 -166 -19 -14
-55 -42 -82 -62 -108 -85 -62 -20 86 121 67 65 226 256 226 272 0 5 5 9 10 9
6 0 10 -2 10 -4z m1317 -143 c-3 -10 -5 -4 -5 12 0 17 2 24 5 18 2 -7 2 -21 0
-30z m-7310 -25 c-3 -7 -5 -2 -5 12 0 14 2 19 5 13 2 -7 2 -19 0 -25z m1636
-191 c33 -36 176 -139 269 -195 134 -81 274 -139 416 -175 178 -43 176 -57 -2
-26 -32 6 -82 21 -110 34 -28 13 -69 29 -91 35 -55 17 -146 61 -169 82 -11 10
-24 18 -28 18 -11 0 -72 42 -76 53 -2 4 -8 7 -12 7 -37 0 -230 149 -230 178 0
18 8 15 33 -11z m246 -1 c9 -8 66 -39 126 -68 253 -125 472 -185 800 -217 66
-7 352 -11 720 -12 336 0 626 0 645 0 191 -2 577 35 685 65 28 7 82 21 120 30
39 10 106 33 149 52 44 19 87 34 97 34 10 0 21 5 25 11 3 6 17 9 30 6 16 -3
24 0 24 9 0 17 30 19 31 2 0 -7 4 -3 9 9 6 15 15 20 29 16 13 -3 21 -1 21 6 0
7 5 9 12 5 7 -5 5 -11 -8 -21 -41 -30 -185 -104 -260 -133 -43 -17 -88 -35
-99 -40 -39 -19 -170 -59 -185 -57 -8 1 -44 -4 -80 -11 -228 -42 -243 -43
-1010 -48 -836 -5 -973 1 -1245 57 -229 47 -466 133 -560 204 -16 12 -48 31
-71 43 -56 28 -70 47 -47 61 23 13 24 13 42 -3z m3681 -121 c-7 -13 -27 -29
-44 -36 -17 -7 -50 -26 -73 -42 -25 -18 -48 -27 -58 -23 -22 8 -8 29 16 23 11
-3 17 -1 13 4 -3 5 2 9 10 9 21 0 77 35 69 43 -3 4 1 7 11 7 10 0 14 5 11 11
-4 6 0 9 11 7 12 -2 18 2 16 11 -4 17 21 35 27 20 2 -6 -2 -21 -9 -34z m-210
-99 c0 -2 -7 -7 -16 -10 -8 -3 -12 -2 -9 4 6 10 25 14 25 6z m-73 -72 c-3 -3
-12 -4 -19 -1 -8 3 -5 6 6 6 11 1 17 -2 13 -5z m-94 -24 c-4 -4 -24 -11 -43
-14 l-35 -7 35 20 c33 18 62 19 43 1z m-93 -35 c0 -8 -196 -65 -224 -65 -15 0
-35 -4 -44 -9 -25 -12 -112 -20 -112 -10 0 5 12 9 28 10 15 0 92 18 172 38
145 38 180 45 180 36z"/>
<path d="M5043 5584 c-20 -9 -15 -41 9 -58 16 -12 47 -16 113 -16 129 0 185
-19 249 -83 28 -29 64 -77 80 -107 16 -30 48 -82 72 -116 l43 -61 -37 1 c-56
2 -52 -22 26 -137 38 -56 79 -122 92 -147 12 -25 33 -56 45 -70 32 -34 94
-179 107 -248 5 -31 12 -67 14 -79 3 -16 11 -23 28 -23 70 0 39 166 -80 428
-13 29 -28 69 -34 90 -11 44 -48 159 -61 187 -4 11 -19 45 -32 75 -57 131
-188 289 -282 338 -46 25 -60 27 -195 29 -80 1 -151 0 -157 -3z"/>
<path d="M4440 5540 c-36 -5 -124 -22 -195 -39 -213 -51 -493 -63 -615 -26
-205 63 -227 67 -385 62 -165 -6 -282 -32 -367 -82 -24 -14 -62 -35 -85 -46
-38 -18 -144 -95 -334 -244 -95 -75 -292 -282 -358 -377 -33 -46 -76 -115 -96
-153 -21 -39 -48 -88 -61 -110 -12 -22 -33 -67 -45 -100 -12 -33 -41 -103 -64
-155 -45 -100 -79 -228 -73 -276 2 -24 8 -29 31 -29 36 0 41 9 117 210 105
274 260 556 387 702 29 34 95 95 146 136 51 41 99 82 107 92 14 17 165 131
225 170 56 36 200 108 270 134 63 23 84 26 200 25 108 0 148 -5 235 -28 225
-58 298 -66 495 -55 129 8 206 21 390 66 54 14 109 17 241 16 148 -1 179 -5
230 -23 149 -55 231 -80 259 -80 40 0 99 -17 159 -46 50 -24 81 -29 110 -18
25 9 19 32 -20 79 -37 46 -98 75 -158 75 -56 1 -204 38 -270 69 -49 23 -94 33
-193 45 -137 17 -180 18 -283 6z"/>
<path d="M4425 5314 c-16 -5 -349 -51 -460 -63 -154 -17 -298 -15 -410 6 -69
12 -143 18 -240 17 -162 -1 -232 -17 -407 -90 -167 -71 -409 -251 -489 -364
-22 -30 -53 -73 -70 -95 -47 -61 -148 -232 -155 -263 -4 -15 -17 -47 -29 -72
-22 -44 -104 -285 -124 -366 -6 -22 -16 -83 -22 -135 -5 -52 -15 -132 -20
-179 -5 -47 -10 -161 -9 -253 0 -209 27 -368 100 -581 42 -123 101 -255 130
-291 4 -5 18 -28 30 -50 39 -69 167 -238 233 -306 77 -79 188 -170 242 -197
51 -25 132 -48 270 -77 92 -19 125 -21 206 -15 117 9 146 18 257 81 158 90
282 148 340 158 31 6 80 16 107 22 209 44 457 59 593 35 135 -24 291 -21 372
6 85 28 170 66 170 77 0 5 33 25 73 45 146 74 184 99 287 188 186 159 288 332
390 658 18 58 40 130 50 160 47 141 70 308 70 510 0 196 -18 303 -84 497 -114
339 -240 529 -459 698 -43 33 -87 68 -99 77 -37 32 -281 119 -398 144 -96 20
-142 24 -275 23 -88 -1 -164 -3 -170 -5z m510 -139 c55 -15 126 -37 157 -49
81 -33 200 -103 245 -144 174 -158 240 -247 327 -438 78 -173 102 -252 125
-409 32 -216 26 -458 -15 -605 -23 -82 -92 -314 -119 -400 -55 -176 -147 -334
-257 -441 -103 -99 -423 -309 -472 -309 -8 0 -47 -13 -87 -30 -86 -35 -138
-37 -304 -14 -60 8 -157 15 -215 15 -99 0 -470 -29 -645 -51 -44 -5 -143 -12
-220 -16 -124 -6 -145 -9 -183 -31 -39 -22 -53 -25 -130 -21 -78 3 -92 6 -132
34 -25 17 -65 42 -90 54 -41 21 -77 47 -165 120 -113 95 -236 266 -281 392 -8
23 -21 52 -28 63 -19 29 -35 81 -51 160 -42 217 -46 316 -31 740 7 197 10 218
43 340 61 224 159 414 290 557 93 102 119 124 198 167 81 44 169 71 232 71 28
0 62 4 75 9 26 9 171 -10 256 -35 29 -8 106 -20 172 -26 101 -10 137 -9 237 5
65 9 143 20 173 23 30 4 109 19 175 34 229 54 384 73 540 67 77 -4 164 -13
193 -21 83 -23 212 -90 263 -138 26 -24 61 -54 78 -67 48 -36 154 -177 196
-260 49 -99 92 -244 106 -360 22 -181 -6 -500 -57 -661 -8 -25 -23 -83 -34
-128 -31 -128 -132 -352 -211 -468 -38 -56 -132 -139 -198 -174 -30 -17 -59
-30 -64 -30 -5 0 -35 -16 -66 -36 -31 -20 -94 -58 -141 -86 -47 -28 -88 -55
-92 -62 -23 -35 9 -81 50 -71 13 3 95 46 182 95 86 50 162 90 167 90 6 0 37
24 70 53 33 30 77 66 97 82 58 45 123 139 192 283 66 138 77 167 114 312 12
47 31 112 41 145 10 33 30 134 45 225 41 260 27 417 -59 705 -35 116 -128 262
-249 392 -32 34 -58 67 -58 73 0 5 -5 10 -12 10 -6 0 -43 20 -82 44 -243 149
-432 188 -716 148 -80 -12 -161 -23 -180 -26 -19 -2 -105 -18 -190 -36 -224
-46 -241 -48 -395 -49 -106 0 -160 4 -225 20 -55 12 -140 22 -241 26 -143 5
-162 4 -229 -16 -167 -51 -298 -129 -412 -248 -51 -54 -164 -212 -179 -252 -6
-14 -26 -57 -45 -95 -19 -38 -34 -76 -34 -86 0 -9 -14 -42 -30 -72 -63 -117
-71 -156 -83 -393 -7 -121 -11 -319 -10 -440 2 -191 5 -236 27 -345 14 -69 35
-154 47 -190 35 -107 126 -282 185 -356 30 -38 69 -90 86 -116 16 -27 34 -48
39 -48 4 0 47 -30 95 -66 94 -70 154 -105 249 -142 145 -57 243 -59 346 -7 93
48 109 49 137 13 12 -15 6 -21 -45 -54 -110 -70 -160 -88 -243 -87 -77 0 -197
17 -260 34 -66 19 -180 82 -238 131 -107 92 -194 182 -236 243 -14 22 -44 63
-66 90 -22 28 -40 56 -40 63 0 7 -18 39 -39 71 -49 72 -111 219 -150 354 -38
135 -37 133 -56 274 -16 126 -12 250 16 488 24 203 96 480 158 603 22 45 84
161 119 222 49 86 155 220 174 220 5 0 30 21 56 48 26 26 81 70 122 97 41 28
76 53 78 57 4 10 76 42 174 78 55 21 112 33 201 41 110 11 144 10 298 -7 197
-22 347 -21 524 2 66 8 156 20 200 25 44 5 123 16 175 24 65 9 151 12 270 10
148 -4 191 -8 275 -30z"/>
<path d="M4645 4871 c-60 -10 -137 -24 -170 -30 -487 -93 -745 -108 -1010 -58
-198 38 -362 41 -449 9 -70 -26 -170 -82 -208 -116 -69 -62 -208 -270 -208
-312 0 -6 -18 -55 -40 -109 -22 -54 -40 -105 -40 -114 0 -9 -9 -43 -19 -76
-44 -141 -74 -507 -56 -686 11 -106 45 -297 61 -347 26 -77 122 -262 165 -318
103 -134 258 -244 425 -301 l109 -38 225 1 c124 0 259 5 300 11 41 7 140 21
220 32 80 11 186 32 235 46 50 15 113 31 140 37 154 32 480 183 620 288 28 20
63 45 78 55 16 10 74 64 129 119 91 93 104 111 158 221 73 150 146 369 136
409 -5 21 -12 27 -28 24 -27 -4 -53 -39 -77 -103 -107 -285 -155 -378 -245
-468 -136 -137 -210 -190 -410 -293 -154 -79 -446 -181 -586 -203 -380 -62
-496 -74 -675 -74 -140 1 -241 17 -309 48 -17 8 -55 24 -85 35 -71 27 -99 48
-195 144 -84 84 -145 165 -189 252 -37 74 -87 267 -87 339 0 33 -5 115 -12
183 -11 108 -10 136 5 225 9 56 17 118 17 137 0 42 34 203 56 268 36 107 120
292 165 363 75 117 161 190 259 219 71 21 188 26 270 10 276 -51 377 -62 510
-56 117 6 237 19 370 42 19 3 100 17 180 30 80 13 197 33 260 44 153 28 257
24 360 -16 66 -26 86 -40 170 -124 98 -98 101 -103 180 -295 20 -47 30 -96 41
-189 12 -110 29 -156 59 -156 26 0 35 34 34 145 0 190 -75 397 -195 540 -35
41 -67 75 -71 75 -4 0 -22 13 -40 29 -18 16 -71 48 -118 71 -83 42 -88 43
-195 46 -73 2 -147 -3 -220 -15z"/>
<path d="M4680 4653 c-83 -5 -235 -24 -290 -38 -188 -45 -470 -65 -825 -57
-312 6 -446 -17 -588 -102 -141 -85 -301 -308 -296 -411 3 -43 4 -44 32 -41
31 4 36 9 69 71 53 102 197 252 288 302 31 17 98 41 150 54 94 22 96 22 445
12 391 -12 562 -6 680 25 164 43 303 72 348 72 70 0 152 -25 236 -73 87 -49
84 -40 63 -197 -8 -60 -9 -110 -2 -170 15 -127 12 -282 -5 -333 -8 -24 -38
-86 -67 -138 -39 -72 -73 -115 -142 -185 -136 -135 -161 -153 -331 -242 -16
-8 -32 -19 -35 -23 -11 -16 -369 -139 -404 -139 -10 0 -62 -11 -115 -24 -53
-14 -126 -32 -163 -41 -96 -23 -340 -31 -478 -15 -94 10 -114 10 -121 -2 -29
-44 25 -81 148 -103 139 -25 277 -16 568 39 164 30 463 120 509 151 11 8 28
15 37 15 30 0 163 73 249 137 150 111 181 137 215 178 18 22 54 65 79 95 25
30 72 107 104 170 l57 115 1 275 c0 151 4 300 8 331 4 32 3 66 -3 82 -12 30
-142 137 -210 171 -50 26 -140 42 -211 39z"/>
<path d="M4563 4454 c-11 -28 12 -48 73 -65 88 -24 120 -44 146 -91 28 -52 64
-63 74 -24 10 40 -14 93 -56 126 -51 40 -92 56 -168 64 -53 6 -63 5 -69 -10z"/>
<path d="M3315 4310 c-136 -12 -222 -51 -213 -97 3 -15 12 -18 53 -15 272 14
467 2 730 -44 125 -22 370 -14 475 15 88 24 197 27 255 6 51 -19 74 -19 81 -1
18 47 -71 103 -177 112 -61 5 -90 2 -169 -20 -167 -45 -270 -44 -515 8 -38 8
-99 17 -135 20 -36 4 -83 11 -105 16 -45 11 -159 11 -280 0z"/>
<path d="M5183 4304 c-3 -9 0 -103 7 -210 7 -106 10 -228 7 -271 -9 -110 -50
-264 -98 -360 -44 -92 -123 -214 -145 -226 -8 -5 -43 -34 -77 -64 -115 -103
-285 -203 -397 -233 -24 -7 -70 -25 -102 -41 -32 -16 -65 -29 -74 -29 -9 0
-30 -6 -47 -14 -111 -48 -499 -139 -671 -156 -176 -18 -290 -4 -436 56 -87 35
-167 96 -257 196 -75 83 -100 122 -122 190 -7 20 -19 39 -27 42 -20 8 -51 -9
-58 -32 -9 -26 16 -101 58 -175 92 -165 241 -284 449 -358 101 -37 115 -39
230 -40 223 -3 667 95 1017 224 139 51 369 174 432 232 18 17 47 41 63 53 58
44 138 127 175 182 75 111 148 277 169 388 31 158 34 207 22 332 -21 215 -31
269 -58 301 -28 32 -50 37 -60 13z"/>
<path d="M4530 4074 c-108 -56 -172 -68 -340 -60 -121 5 -241 19 -345 41 -11
2 -65 9 -120 15 -55 6 -121 16 -146 21 -70 15 -440 10 -521 -8 -110 -24 -278
-141 -278 -193 0 -66 59 -67 120 -4 25 26 63 55 85 65 57 26 190 39 405 42
157 2 201 -1 290 -20 58 -12 134 -25 170 -28 36 -4 106 -14 155 -22 130 -23
333 -22 415 1 103 30 230 107 230 141 0 14 -33 45 -46 44 -5 -1 -38 -16 -74
-35z"/>
<path d="M4811 4052 c-5 -10 -28 -67 -51 -127 -23 -61 -47 -119 -54 -130 -7
-11 -20 -42 -31 -70 -38 -104 -194 -291 -272 -325 -120 -53 -199 -70 -326 -70
-118 0 -314 19 -407 40 -25 5 -65 14 -90 19 -25 5 -97 15 -162 21 -242 25
-423 -33 -369 -119 6 -10 19 -12 47 -6 22 3 100 9 174 12 136 4 193 -2 570
-62 69 -11 132 -13 230 -9 153 7 238 23 322 61 32 14 61 24 63 21 6 -6 245
223 245 234 0 4 23 45 50 92 28 47 50 87 50 91 0 3 18 42 39 88 53 108 59 151
33 211 -22 48 -44 59 -61 28z"/>
<path d="M3180 3861 c-98 -23 -169 -46 -255 -84 -143 -61 -184 -107 -250 -278
-39 -101 -39 -143 -3 -176 19 -17 20 -17 33 1 8 10 18 40 24 66 14 65 55 150
95 197 74 85 260 160 456 184 138 16 311 -3 469 -52 224 -69 587 -67 726 3
108 55 169 115 145 143 -19 22 -50 18 -97 -14 -73 -49 -188 -74 -343 -75 -76
-1 -159 5 -190 12 -30 6 -102 21 -160 32 -58 10 -134 26 -170 35 -103 25 -385
29 -480 6z"/>
<path d="M3103 3645 c-155 -43 -275 -161 -290 -283 -5 -43 -3 -51 17 -65 34
-24 54 -7 86 73 23 59 35 76 78 108 71 53 66 51 158 67 115 21 273 0 513 -66
116 -33 126 -34 305 -33 158 0 196 3 258 21 115 33 143 61 109 108 -12 16 -18
17 -48 6 -61 -22 -192 -41 -279 -41 -86 0 -271 24 -293 37 -7 4 -82 22 -167
40 -189 40 -367 51 -447 28z"/>
<path d="M3080 3185 c-159 -35 -187 -53 -156 -100 18 -27 18 -28 95 -19 42 5
184 8 316 6 249 -2 296 4 319 40 8 13 6 22 -8 37 -17 19 -31 21 -135 21 -64 0
-131 4 -149 9 -62 18 -213 21 -282 6z"/>
<path d="M1817 3703 c-20 -32 -35 -239 -21 -277 3 -9 16 -16 29 -16 20 0 24 7
34 63 12 69 15 196 5 221 -6 16 -39 22 -47 9z"/>
<path d="M1809 3223 c-15 -36 3 -202 32 -299 11 -38 29 -107 39 -154 18 -84
26 -106 89 -245 87 -193 143 -275 239 -350 84 -67 152 -98 185 -86 41 16 36
52 -10 83 -21 14 -60 45 -87 69 -26 24 -54 47 -61 51 -7 5 -27 33 -45 64 -17
31 -40 65 -50 76 -52 56 -177 393 -225 607 -15 64 -34 136 -43 161 -21 54 -47
64 -63 23z"/>
<path d="M6280 2230 c0 -5 5 -10 10 -10 6 0 10 5 10 10 0 6 -4 10 -10 10 -5 0
-10 -4 -10 -10z"/>
</g>
</svg>
